<?xml version="1.0" encoding="UTF-8"?>
<svg width="16px" height="16px" viewBox="0 0 16 16" version="1.1" xmlns="http://www.w3.org/2000/svg" xmlns:xlink="http://www.w3.org/1999/xlink">
    <!-- Generator: Sketch 43.2 (39069) - http://www.bohemiancoding.com/sketch -->
    <title>Shape</title>
    <desc>Created with Sketch.</desc>
    <defs></defs>
    <g id="MEP-(Walk-In)-Concierge" stroke="none" stroke-width="1" fill="none" fill-rule="evenodd">
        <g id="03.01-MEP_Login_Filled" transform="translate(-45.000000, -363.000000)" fill-rule="nonzero" fill="#666666">
            <g id="Group" transform="translate(30.000000, 251.000000)">
                <path d="M16.2307692,126.769231 L21.1538462,126.769231 L16.2307692,126.769231 L16.2307692,126.769231 Z M17.4615385,123.076923 L19.9230769,123.076923 L19.9230769,125.538462 L17.4615385,125.538462 L17.4615385,123.076923 L17.4615385,123.076923 L17.4615385,123.076923 Z M23.6157088,120.615385 L24.8464781,120.615385 L24.8464781,125.538462 L23.6157088,125.538462 L23.6157088,120.615385 L23.6157088,120.615385 L23.6157088,120.615385 Z M15,128 L22.3842912,128 L22.3842912,120.615385 L15,120.615385 L15,128 L15,128 L15,128 Z M16.2307692,126.769231 L16.2307692,121.846154 L21.1538462,121.846154 L21.1538462,126.769231 L16.2307692,126.769231 L16.2307692,126.769231 L16.2307692,126.769231 Z M23.6157088,126.769231 L26.0772473,126.769231 L26.0772473,128 L23.6153846,128 L23.6157088,126.769231 L23.6157088,126.769231 L23.6157088,126.769231 Z M29.7692308,123.076923 L31,123.076923 L31,124.307692 L29.7692308,124.307692 L29.7692308,123.076923 L29.7692308,123.076923 L29.7692308,123.076923 Z M27.3076923,120.615385 L31,120.615385 L31,121.846154 L27.3076923,121.846154 L27.3076923,120.615385 L27.3076923,120.615385 Z M26.0769231,114.461538 L28.5384615,114.461538 L28.5384615,116.923077 L26.0769231,116.923077 L26.0769231,114.461538 L26.0769231,114.461538 Z M31,112 L23.6153846,112 L23.6153846,119.384615 L31,119.384615 L31,112 L31,112 L31,112 Z M29.7692308,118.153846 L24.8461538,118.153846 L24.8461538,113.230769 L29.769555,113.230769 L29.769555,118.153846 L29.7692308,118.153846 Z M15,119.384615 L22.3842912,119.384615 L22.3842912,112 L15,112 L15,119.384615 L15,119.384615 Z M16.2307692,113.230769 L21.1538462,113.230769 L21.1538462,118.153846 L16.2307692,118.153846 L16.2307692,113.230769 L16.2307692,113.230769 Z M29.7692308,126.769231 L27.3076923,126.769231 L27.3076923,128 L31,128 L31,125.538462 L29.7692308,125.538462 L29.7692308,126.769231 L29.7692308,126.769231 L29.7692308,126.769231 Z M26.0769231,123.076923 L26.0769231,125.538462 L28.5384615,125.538462 L28.5384615,124.307692 L27.3076923,124.307692 L27.3076923,123.076923 L26.0769231,123.076923 L26.0769231,123.076923 L26.0769231,123.076923 Z M17.4615385,114.461538 L19.9230769,114.461538 L19.9230769,116.923077 L17.4615385,116.923077 L17.4615385,114.461538 L17.4615385,114.461538 L17.4615385,114.461538 Z" id="Shape"></path>
            </g>
        </g>
    </g>
</svg>