<?xml version="1.0" encoding="UTF-8"?>
<svg width="16px" height="16px" viewBox="0 0 16 16" version="1.1" xmlns="http://www.w3.org/2000/svg" xmlns:xlink="http://www.w3.org/1999/xlink">
    <!-- Generator: Sketch 43.2 (39069) - http://www.bohemiancoding.com/sketch -->
    <title>Shape</title>
    <desc>Created with Sketch.</desc>
    <defs></defs>
    <g id="MEP-(Walk-In)-Concierge" stroke="none" stroke-width="1" fill="none" fill-rule="evenodd">
        <g id="03.00-MEP_Login" transform="translate(-45.000000, -267.000000)" fill-rule="nonzero" fill="#999999">
            <g id="Group" transform="translate(30.000000, 251.000000)">
                <path d="M31,31.9999375 L31,30.3211663 C31,29.5057033 30.4726618,28.8133692 29.7407198,28.5682365 L29.7407198,28.5682365 C29.6830919,28.5487046 25.9365028,27.591706 25.4003828,26.527204 C25.1557771,26.040845 25.3969764,25.4178568 25.6411133,24.9881559 C25.7528688,24.8377449 25.8622179,24.6785837 25.9672855,24.5115785 L25.9672855,24.5106097 L25.9672855,24.5106097 C26.6020978,23.4949842 27.0864964,22.1590675 27.1357488,20.5077346 C27.2099712,18.0234382 25.2875961,16.0058439 23.0054221,16 L23.0054221,16 L23.0000469,16 L22.9946404,16 L22.9946404,16 C20.712904,16.0058439 18.7905601,18.0234382 18.8652512,20.5077971 C18.9145661,22.1591612 19.398496,23.495078 20.0332145,24.5106722 L20.0332145,24.5106722 C20.0332145,24.5106722 20.0337458,24.5106722 20.0337458,24.511641 C20.1382509,24.6786462 20.2476312,24.8378387 20.3594179,24.9882184 C20.6035861,25.4179193 20.8447541,26.0409388 20.6001484,26.5272665 C20.064466,27.591706 16.3174081,28.5487671 16.2597803,28.568299 L16.2597803,28.568299 C15.5278695,28.8134942 15,29.5057658 15,30.3212913 L15,32 L31,31.9999375 L31,31.9999375 Z" id="Shape"></path>
            </g>
        </g>
    </g>
</svg>