<?xml version="1.0" encoding="UTF-8"?>
<svg width="16px" height="16px" viewBox="0 0 16 16" version="1.1" xmlns="http://www.w3.org/2000/svg" xmlns:xlink="http://www.w3.org/1999/xlink">
    <!-- Generator: Sketch 43.2 (39069) - http://www.bohemiancoding.com/sketch -->
    <title>Shape</title>
    <desc>Created with Sketch.</desc>
    <defs></defs>
    <g id="MEP-(Walk-In)-Concierge" stroke="none" stroke-width="1" fill="none" fill-rule="evenodd">
        <g id="03.01-MEP_Login_Filled" transform="translate(-45.000000, -315.000000)" fill-rule="nonzero" fill="#666666">
            <g id="Group" transform="translate(30.000000, 251.000000)">
                <path d="M23.0375438,64 L23.000044,64 C20.8718105,63.9999766 18.8312867,64.8479771 17.3299213,66.3563884 C15.8285559,67.8647998 14.9901119,69.9092782 15.000088,72.0375 C15.0200879,76.4275 18.7025676,80 23.2075429,80 L23.5000413,80 C24.052323,80 24.5000358,79.5522847 24.5000358,79 C24.5000358,78.4477153 24.052323,78 23.5000413,78 L23.2075429,78 C19.8000616,78 17.0150769,75.32 17.000077,72.0275 C16.9927617,70.4314417 17.6216684,68.8982439 18.7476743,67.7670709 C19.8736803,66.6358978 21.4039777,65.9999832 23.000044,66 L23.0275439,66 C26.3200257,66.015 29.000011,68.8 29.000011,72.2075 L29.000011,74.5 C29.000011,75.0522847 28.5522982,75.5 28.0000165,75.5 C27.4477348,75.5 27.000022,75.0522847 27.000022,74.5 L27.000022,72 C27.0062106,70.1675885 25.7702234,68.5637794 23.9967109,68.1029227 C22.2231984,67.642066 20.3627851,68.4412588 19.476114,70.0448722 C18.589443,71.6484856 18.9018047,73.6490639 20.2351183,74.9060546 C21.5684319,76.1630453 23.583921,76.3570646 25.1325323,75.3775 C25.5686533,76.7958505 26.9761818,77.6822638 28.4437402,77.4627854 C29.9112985,77.243307 30.9979136,75.983886 31,74.5 L31,72.2075 C31,67.7025 27.4275197,64.02 23.0375438,64 Z M23.000044,74 C21.8954806,74 21.000055,73.1045695 21.000055,72 C21.000055,70.8954305 21.8954806,70 23.000044,70 C24.1046074,70 25.000033,70.8954305 25.000033,72 C25.000033,73.1045695 24.1046074,74 23.000044,74 Z" id="Shape"></path>
            </g>
        </g>
    </g>
</svg>